<mxfile host="app.diagrams.net" modified="2024-07-14T02:21:22.481Z" agent="Mozilla/5.0 (Macintosh; Intel Mac OS X 10.15; rv:127.0) Gecko/20100101 Firefox/127.0" etag="-EGuGdCKTm2bv-yotYYG" version="24.6.5" type="device">
  <diagram name="Page-1" id="t6AoFiBrVVnzdo2l2Gcy">
    <mxGraphModel dx="1194" dy="556" grid="1" gridSize="10" guides="1" tooltips="1" connect="1" arrows="1" fold="1" page="1" pageScale="1" pageWidth="850" pageHeight="1100" math="0" shadow="0">
      <root>
        <mxCell id="0" />
        <mxCell id="1" parent="0" />
        <mxCell id="7IAWQ3vHg3S8ieReHD5M-1" value="&lt;div&gt;Alice&lt;/div&gt;" style="shape=umlActor;verticalLabelPosition=bottom;verticalAlign=top;html=1;outlineConnect=0;" vertex="1" parent="1">
          <mxGeometry x="165" y="200" width="30" height="60" as="geometry" />
        </mxCell>
        <mxCell id="7IAWQ3vHg3S8ieReHD5M-2" value="&lt;font face=&quot;Courier New&quot;&gt;&lt;code&gt;Settlement Contract A&lt;br&gt;&lt;/code&gt;&lt;/font&gt;" style="shape=cylinder3;whiteSpace=wrap;html=1;boundedLbl=1;backgroundOutline=1;size=15;" vertex="1" parent="1">
          <mxGeometry x="625" y="180" width="95" height="100" as="geometry" />
        </mxCell>
        <mxCell id="7IAWQ3vHg3S8ieReHD5M-5" style="edgeStyle=orthogonalEdgeStyle;rounded=0;orthogonalLoop=1;jettySize=auto;html=1;entryX=0;entryY=0.5;entryDx=0;entryDy=0;entryPerimeter=0;" edge="1" parent="1" source="7IAWQ3vHg3S8ieReHD5M-1" target="7IAWQ3vHg3S8ieReHD5M-2">
          <mxGeometry relative="1" as="geometry" />
        </mxCell>
        <mxCell id="7IAWQ3vHg3S8ieReHD5M-22" value="&lt;font face=&quot;Helvetica&quot;&gt;Create Order A&lt;br&gt;(initiate)&lt;br&gt;&lt;/font&gt;" style="edgeLabel;html=1;align=center;verticalAlign=middle;resizable=0;points=[];" vertex="1" connectable="0" parent="7IAWQ3vHg3S8ieReHD5M-5">
          <mxGeometry x="-0.093" y="1" relative="1" as="geometry">
            <mxPoint as="offset" />
          </mxGeometry>
        </mxCell>
        <mxCell id="7IAWQ3vHg3S8ieReHD5M-9" value="&lt;font face=&quot;Helvetica&quot;&gt;&lt;code&gt;Settlement Contract&lt;/code&gt; B&lt;/font&gt;" style="shape=cylinder3;whiteSpace=wrap;html=1;boundedLbl=1;backgroundOutline=1;size=15;" vertex="1" parent="1">
          <mxGeometry x="625" y="440" width="95" height="100" as="geometry" />
        </mxCell>
        <mxCell id="7IAWQ3vHg3S8ieReHD5M-10" value="" style="endArrow=none;dashed=1;html=1;dashPattern=1 3;strokeWidth=2;rounded=0;" edge="1" parent="1">
          <mxGeometry width="50" height="50" relative="1" as="geometry">
            <mxPoint x="805" y="360" as="sourcePoint" />
            <mxPoint x="805" y="360" as="targetPoint" />
          </mxGeometry>
        </mxCell>
        <mxCell id="7IAWQ3vHg3S8ieReHD5M-11" style="edgeStyle=orthogonalEdgeStyle;rounded=0;orthogonalLoop=1;jettySize=auto;html=1;entryX=0.4;entryY=-0.03;entryDx=0;entryDy=0;entryPerimeter=0;exitX=0.4;exitY=1.04;exitDx=0;exitDy=0;exitPerimeter=0;" edge="1" parent="1" source="7IAWQ3vHg3S8ieReHD5M-2" target="7IAWQ3vHg3S8ieReHD5M-9">
          <mxGeometry relative="1" as="geometry" />
        </mxCell>
        <mxCell id="7IAWQ3vHg3S8ieReHD5M-13" value="Bob" style="shape=umlActor;verticalLabelPosition=bottom;verticalAlign=top;html=1;outlineConnect=0;" vertex="1" parent="1">
          <mxGeometry x="165" y="460" width="30" height="60" as="geometry" />
        </mxCell>
        <mxCell id="7IAWQ3vHg3S8ieReHD5M-14" style="edgeStyle=orthogonalEdgeStyle;rounded=0;orthogonalLoop=1;jettySize=auto;html=1;entryX=0;entryY=0.5;entryDx=0;entryDy=0;entryPerimeter=0;" edge="1" parent="1" source="7IAWQ3vHg3S8ieReHD5M-13" target="7IAWQ3vHg3S8ieReHD5M-9">
          <mxGeometry relative="1" as="geometry" />
        </mxCell>
        <mxCell id="7IAWQ3vHg3S8ieReHD5M-16" value="&lt;font face=&quot;Helvetica&quot;&gt;Create Order B&lt;br&gt;(initiate)&lt;/font&gt;" style="edgeLabel;html=1;align=center;verticalAlign=middle;resizable=0;points=[];" vertex="1" connectable="0" parent="7IAWQ3vHg3S8ieReHD5M-14">
          <mxGeometry x="-0.0837" y="-1" relative="1" as="geometry">
            <mxPoint as="offset" />
          </mxGeometry>
        </mxCell>
        <mxCell id="7IAWQ3vHg3S8ieReHD5M-17" style="edgeStyle=orthogonalEdgeStyle;rounded=0;orthogonalLoop=1;jettySize=auto;html=1;exitX=0.642;exitY=-0.03;exitDx=0;exitDy=0;exitPerimeter=0;entryX=0.642;entryY=1;entryDx=0;entryDy=0;entryPerimeter=0;" edge="1" parent="1" source="7IAWQ3vHg3S8ieReHD5M-9" target="7IAWQ3vHg3S8ieReHD5M-2">
          <mxGeometry relative="1" as="geometry" />
        </mxCell>
        <mxCell id="7IAWQ3vHg3S8ieReHD5M-26" value="" style="endArrow=none;dashed=1;html=1;dashPattern=1 3;strokeWidth=2;rounded=0;" edge="1" parent="1">
          <mxGeometry width="50" height="50" relative="1" as="geometry">
            <mxPoint x="45" y="360" as="sourcePoint" />
            <mxPoint x="805" y="360" as="targetPoint" />
          </mxGeometry>
        </mxCell>
        <mxCell id="7IAWQ3vHg3S8ieReHD5M-28" value="Broadcast&lt;br&gt;Orders" style="text;html=1;align=center;verticalAlign=middle;whiteSpace=wrap;rounded=0;" vertex="1" parent="1">
          <mxGeometry x="642.5" y="340" width="60" height="30" as="geometry" />
        </mxCell>
        <mxCell id="7IAWQ3vHg3S8ieReHD5M-29" value="&lt;h1 style=&quot;margin-top: 0px;&quot;&gt;Create Order&lt;br&gt;&lt;/h1&gt;Alice and Bob creates matchable orders at different chains. The settlement contract broadcasts the orders to the target chain." style="text;html=1;whiteSpace=wrap;overflow=hidden;rounded=0;" vertex="1" parent="1">
          <mxGeometry x="40" y="30" width="200" height="120" as="geometry" />
        </mxCell>
        <mxCell id="7IAWQ3vHg3S8ieReHD5M-60" style="edgeStyle=orthogonalEdgeStyle;rounded=0;orthogonalLoop=1;jettySize=auto;html=1;" edge="1" parent="1" source="7IAWQ3vHg3S8ieReHD5M-31" target="7IAWQ3vHg3S8ieReHD5M-58">
          <mxGeometry relative="1" as="geometry" />
        </mxCell>
        <mxCell id="7IAWQ3vHg3S8ieReHD5M-61" value="Matched for &lt;br&gt;Order B" style="edgeLabel;html=1;align=center;verticalAlign=middle;resizable=0;points=[];" vertex="1" connectable="0" parent="7IAWQ3vHg3S8ieReHD5M-60">
          <mxGeometry x="0.25" y="-3" relative="1" as="geometry">
            <mxPoint x="-3" y="-7" as="offset" />
          </mxGeometry>
        </mxCell>
        <mxCell id="7IAWQ3vHg3S8ieReHD5M-31" value="&lt;font face=&quot;Courier New&quot;&gt;&lt;code&gt;Settlement Contract A&lt;/code&gt;&lt;/font&gt;" style="shape=cylinder3;whiteSpace=wrap;html=1;boundedLbl=1;backgroundOutline=1;size=15;" vertex="1" parent="1">
          <mxGeometry x="185" y="920" width="95" height="100" as="geometry" />
        </mxCell>
        <mxCell id="7IAWQ3vHg3S8ieReHD5M-32" value="&lt;font face=&quot;Helvetica&quot;&gt;&lt;code&gt;Settlement Contract&lt;/code&gt; B&lt;/font&gt;" style="shape=cylinder3;whiteSpace=wrap;html=1;boundedLbl=1;backgroundOutline=1;size=15;" vertex="1" parent="1">
          <mxGeometry x="599.5" y="920" width="95" height="100" as="geometry" />
        </mxCell>
        <mxCell id="7IAWQ3vHg3S8ieReHD5M-37" value="&lt;div&gt;Tarik&lt;/div&gt;" style="shape=umlActor;verticalLabelPosition=bottom;verticalAlign=top;html=1;outlineConnect=0;" vertex="1" parent="1">
          <mxGeometry x="419" y="1140" width="30" height="60" as="geometry" />
        </mxCell>
        <mxCell id="7IAWQ3vHg3S8ieReHD5M-38" style="edgeStyle=orthogonalEdgeStyle;rounded=0;orthogonalLoop=1;jettySize=auto;html=1;exitX=0;exitY=0.3333333333333333;exitDx=0;exitDy=0;exitPerimeter=0;entryX=0.5;entryY=1;entryDx=0;entryDy=0;entryPerimeter=0;" edge="1" parent="1" source="7IAWQ3vHg3S8ieReHD5M-37" target="7IAWQ3vHg3S8ieReHD5M-31">
          <mxGeometry relative="1" as="geometry" />
        </mxCell>
        <mxCell id="7IAWQ3vHg3S8ieReHD5M-39" value="Tells Order A&lt;br&gt;matches with Order B&lt;br&gt;(match)" style="edgeLabel;html=1;align=center;verticalAlign=middle;resizable=0;points=[];" vertex="1" connectable="0" parent="7IAWQ3vHg3S8ieReHD5M-38">
          <mxGeometry x="-0.3051" y="4" relative="1" as="geometry">
            <mxPoint x="17" as="offset" />
          </mxGeometry>
        </mxCell>
        <mxCell id="7IAWQ3vHg3S8ieReHD5M-57" value="&lt;h1 style=&quot;margin-top: 0px;&quot;&gt;Matching Orders&lt;br&gt;&lt;/h1&gt;&lt;p&gt;Tarik sends match transaction to both settlement contract. The settlement contract validates the match and connects those two orders to each other for resolving.&lt;br&gt;&lt;/p&gt;" style="text;html=1;whiteSpace=wrap;overflow=hidden;rounded=0;" vertex="1" parent="1">
          <mxGeometry x="40" y="630" width="260" height="120" as="geometry" />
        </mxCell>
        <mxCell id="7IAWQ3vHg3S8ieReHD5M-58" value="Order A" style="ellipse;shape=cloud;whiteSpace=wrap;html=1;" vertex="1" parent="1">
          <mxGeometry x="60" y="770" width="120" height="80" as="geometry" />
        </mxCell>
        <mxCell id="7IAWQ3vHg3S8ieReHD5M-62" style="edgeStyle=orthogonalEdgeStyle;rounded=0;orthogonalLoop=1;jettySize=auto;html=1;exitX=1;exitY=0;exitDx=0;exitDy=32.5;exitPerimeter=0;entryX=0;entryY=0;entryDx=0;entryDy=32.5;entryPerimeter=0;" edge="1" parent="1">
          <mxGeometry relative="1" as="geometry">
            <mxPoint x="280" y="948.5" as="sourcePoint" />
            <mxPoint x="599.5" y="948.5" as="targetPoint" />
          </mxGeometry>
        </mxCell>
        <mxCell id="7IAWQ3vHg3S8ieReHD5M-63" value="Tells that Order A is matched with B&lt;br&gt;(broadcast match)" style="edgeLabel;html=1;align=center;verticalAlign=middle;resizable=0;points=[];" vertex="1" connectable="0" parent="7IAWQ3vHg3S8ieReHD5M-62">
          <mxGeometry x="-0.1689" y="2" relative="1" as="geometry">
            <mxPoint x="14" y="1" as="offset" />
          </mxGeometry>
        </mxCell>
        <mxCell id="7IAWQ3vHg3S8ieReHD5M-66" style="edgeStyle=orthogonalEdgeStyle;rounded=0;orthogonalLoop=1;jettySize=auto;html=1;exitX=0;exitY=0;exitDx=0;exitDy=67.5;exitPerimeter=0;entryX=1;entryY=0;entryDx=0;entryDy=67.5;entryPerimeter=0;" edge="1" parent="1">
          <mxGeometry relative="1" as="geometry">
            <mxPoint x="599.5" y="989.5" as="sourcePoint" />
            <mxPoint x="280" y="989.5" as="targetPoint" />
          </mxGeometry>
        </mxCell>
        <mxCell id="7IAWQ3vHg3S8ieReHD5M-67" value="Tells that Order B is matched with A&lt;br&gt;(broadcast match)" style="edgeLabel;html=1;align=center;verticalAlign=middle;resizable=0;points=[];" vertex="1" connectable="0" parent="7IAWQ3vHg3S8ieReHD5M-66">
          <mxGeometry x="0.1922" relative="1" as="geometry">
            <mxPoint x="18" y="3" as="offset" />
          </mxGeometry>
        </mxCell>
        <mxCell id="7IAWQ3vHg3S8ieReHD5M-68" value="Order B" style="ellipse;shape=cloud;whiteSpace=wrap;html=1;" vertex="1" parent="1">
          <mxGeometry x="694.5" y="766" width="120" height="80" as="geometry" />
        </mxCell>
        <mxCell id="7IAWQ3vHg3S8ieReHD5M-69" style="edgeStyle=orthogonalEdgeStyle;rounded=0;orthogonalLoop=1;jettySize=auto;html=1;exitX=1;exitY=0.5;exitDx=0;exitDy=0;exitPerimeter=0;entryX=0.55;entryY=0.95;entryDx=0;entryDy=0;entryPerimeter=0;" edge="1" parent="1" source="7IAWQ3vHg3S8ieReHD5M-32" target="7IAWQ3vHg3S8ieReHD5M-68">
          <mxGeometry relative="1" as="geometry" />
        </mxCell>
        <mxCell id="7IAWQ3vHg3S8ieReHD5M-70" value="Matched for&lt;br&gt;Order A" style="edgeLabel;html=1;align=center;verticalAlign=middle;resizable=0;points=[];" vertex="1" connectable="0" parent="7IAWQ3vHg3S8ieReHD5M-69">
          <mxGeometry x="0.3647" y="-2" relative="1" as="geometry">
            <mxPoint x="1" y="8" as="offset" />
          </mxGeometry>
        </mxCell>
        <mxCell id="7IAWQ3vHg3S8ieReHD5M-80" style="edgeStyle=orthogonalEdgeStyle;rounded=0;orthogonalLoop=1;jettySize=auto;html=1;" edge="1" parent="1" source="7IAWQ3vHg3S8ieReHD5M-71" target="7IAWQ3vHg3S8ieReHD5M-79">
          <mxGeometry relative="1" as="geometry" />
        </mxCell>
        <mxCell id="7IAWQ3vHg3S8ieReHD5M-81" value="Transfers Order A&lt;br&gt;inputs to Bob" style="edgeLabel;html=1;align=center;verticalAlign=middle;resizable=0;points=[];" vertex="1" connectable="0" parent="7IAWQ3vHg3S8ieReHD5M-80">
          <mxGeometry x="-0.1385" y="-1" relative="1" as="geometry">
            <mxPoint x="1" as="offset" />
          </mxGeometry>
        </mxCell>
        <mxCell id="7IAWQ3vHg3S8ieReHD5M-71" value="&lt;font face=&quot;Courier New&quot;&gt;&lt;code&gt;Settlement Contract A&lt;/code&gt;&lt;/font&gt;" style="shape=cylinder3;whiteSpace=wrap;html=1;boundedLbl=1;backgroundOutline=1;size=15;" vertex="1" parent="1">
          <mxGeometry x="225" y="1639" width="95" height="100" as="geometry" />
        </mxCell>
        <mxCell id="7IAWQ3vHg3S8ieReHD5M-72" value="&lt;div&gt;Tarik&lt;/div&gt;" style="shape=umlActor;verticalLabelPosition=bottom;verticalAlign=top;html=1;outlineConnect=0;" vertex="1" parent="1">
          <mxGeometry x="400" y="1819" width="30" height="60" as="geometry" />
        </mxCell>
        <mxCell id="7IAWQ3vHg3S8ieReHD5M-73" style="edgeStyle=orthogonalEdgeStyle;rounded=0;orthogonalLoop=1;jettySize=auto;html=1;entryX=0.5;entryY=1;entryDx=0;entryDy=0;entryPerimeter=0;" edge="1" parent="1" source="7IAWQ3vHg3S8ieReHD5M-72" target="7IAWQ3vHg3S8ieReHD5M-71">
          <mxGeometry relative="1" as="geometry" />
        </mxCell>
        <mxCell id="7IAWQ3vHg3S8ieReHD5M-74" value="Starts Trade&lt;br&gt;(resolve)" style="edgeLabel;html=1;align=center;verticalAlign=middle;resizable=0;points=[];" vertex="1" connectable="0" parent="7IAWQ3vHg3S8ieReHD5M-73">
          <mxGeometry x="-0.3638" y="2" relative="1" as="geometry">
            <mxPoint x="2" y="-30" as="offset" />
          </mxGeometry>
        </mxCell>
        <mxCell id="7IAWQ3vHg3S8ieReHD5M-92" style="edgeStyle=orthogonalEdgeStyle;rounded=0;orthogonalLoop=1;jettySize=auto;html=1;" edge="1" parent="1" source="7IAWQ3vHg3S8ieReHD5M-76" target="7IAWQ3vHg3S8ieReHD5M-87">
          <mxGeometry relative="1" as="geometry" />
        </mxCell>
        <mxCell id="7IAWQ3vHg3S8ieReHD5M-93" value="&lt;div&gt;Transfers Order B&lt;/div&gt;&lt;div&gt;inputs to Alice&lt;br&gt;&lt;/div&gt;" style="edgeLabel;html=1;align=center;verticalAlign=middle;resizable=0;points=[];" vertex="1" connectable="0" parent="7IAWQ3vHg3S8ieReHD5M-92">
          <mxGeometry y="1" relative="1" as="geometry">
            <mxPoint x="1" as="offset" />
          </mxGeometry>
        </mxCell>
        <mxCell id="7IAWQ3vHg3S8ieReHD5M-76" value="&lt;font face=&quot;Courier New&quot;&gt;&lt;code&gt;Settlement Contract B&lt;br&gt;&lt;/code&gt;&lt;/font&gt;" style="shape=cylinder3;whiteSpace=wrap;html=1;boundedLbl=1;backgroundOutline=1;size=15;" vertex="1" parent="1">
          <mxGeometry x="529.5" y="1639" width="95" height="100" as="geometry" />
        </mxCell>
        <mxCell id="7IAWQ3vHg3S8ieReHD5M-77" style="edgeStyle=orthogonalEdgeStyle;rounded=0;orthogonalLoop=1;jettySize=auto;html=1;exitX=1;exitY=0;exitDx=0;exitDy=32.5;exitPerimeter=0;entryX=0;entryY=0;entryDx=0;entryDy=32.5;entryPerimeter=0;" edge="1" parent="1" source="7IAWQ3vHg3S8ieReHD5M-71" target="7IAWQ3vHg3S8ieReHD5M-76">
          <mxGeometry relative="1" as="geometry" />
        </mxCell>
        <mxCell id="7IAWQ3vHg3S8ieReHD5M-78" value="Tells that inputs&lt;br&gt;are transferred to Bob&lt;br&gt;(broadcast resolve)" style="edgeLabel;html=1;align=center;verticalAlign=middle;resizable=0;points=[];" vertex="1" connectable="0" parent="7IAWQ3vHg3S8ieReHD5M-77">
          <mxGeometry x="-0.28" y="-3" relative="1" as="geometry">
            <mxPoint x="18" y="1" as="offset" />
          </mxGeometry>
        </mxCell>
        <mxCell id="7IAWQ3vHg3S8ieReHD5M-79" value="Bob" style="shape=umlActor;verticalLabelPosition=bottom;verticalAlign=top;html=1;outlineConnect=0;" vertex="1" parent="1">
          <mxGeometry x="257.5" y="1439" width="30" height="60" as="geometry" />
        </mxCell>
        <mxCell id="7IAWQ3vHg3S8ieReHD5M-87" value="Alice" style="shape=umlActor;verticalLabelPosition=bottom;verticalAlign=top;html=1;outlineConnect=0;" vertex="1" parent="1">
          <mxGeometry x="562" y="1439" width="30" height="60" as="geometry" />
        </mxCell>
        <mxCell id="7IAWQ3vHg3S8ieReHD5M-94" value="&lt;div&gt;Resolve&lt;/div&gt;&lt;div&gt;Event&lt;/div&gt;" style="ellipse;shape=cloud;whiteSpace=wrap;html=1;" vertex="1" parent="1">
          <mxGeometry x="20" y="1649" width="120" height="80" as="geometry" />
        </mxCell>
        <mxCell id="7IAWQ3vHg3S8ieReHD5M-95" value="Emits" style="edgeStyle=orthogonalEdgeStyle;rounded=0;orthogonalLoop=1;jettySize=auto;html=1;entryX=0.875;entryY=0.5;entryDx=0;entryDy=0;entryPerimeter=0;" edge="1" parent="1" source="7IAWQ3vHg3S8ieReHD5M-71">
          <mxGeometry relative="1" as="geometry">
            <mxPoint x="130" y="1689" as="targetPoint" />
          </mxGeometry>
        </mxCell>
        <mxCell id="7IAWQ3vHg3S8ieReHD5M-96" value="Resolve Event" style="ellipse;shape=cloud;whiteSpace=wrap;html=1;" vertex="1" parent="1">
          <mxGeometry x="705" y="1649" width="120" height="80" as="geometry" />
        </mxCell>
        <mxCell id="7IAWQ3vHg3S8ieReHD5M-98" style="edgeStyle=orthogonalEdgeStyle;rounded=0;orthogonalLoop=1;jettySize=auto;html=1;entryX=0.067;entryY=0.5;entryDx=0;entryDy=0;entryPerimeter=0;" edge="1" parent="1" source="7IAWQ3vHg3S8ieReHD5M-76" target="7IAWQ3vHg3S8ieReHD5M-96">
          <mxGeometry relative="1" as="geometry" />
        </mxCell>
        <mxCell id="7IAWQ3vHg3S8ieReHD5M-99" value="Emits" style="edgeLabel;html=1;align=center;verticalAlign=middle;resizable=0;points=[];" vertex="1" connectable="0" parent="7IAWQ3vHg3S8ieReHD5M-98">
          <mxGeometry x="-0.0626" relative="1" as="geometry">
            <mxPoint x="1" as="offset" />
          </mxGeometry>
        </mxCell>
        <mxCell id="7IAWQ3vHg3S8ieReHD5M-100" value="&lt;h1 style=&quot;margin-top: 0px;&quot;&gt;Resolving Orders&lt;br&gt;&lt;/h1&gt;&lt;p&gt;Tarik starts the transfers by sending resolve transaction to one of the settlement contracts.&lt;br&gt;The settlement contract transfers their side of input tokens then orders the other settlement contract to do the transfers as well. Each contract emits the resolve event and deletes orders after that.&lt;br&gt;&lt;/p&gt;" style="text;html=1;whiteSpace=wrap;overflow=hidden;rounded=0;" vertex="1" parent="1">
          <mxGeometry x="41" y="1264" width="285" height="140" as="geometry" />
        </mxCell>
        <mxCell id="7IAWQ3vHg3S8ieReHD5M-102" value="" style="endArrow=classic;startArrow=classic;html=1;rounded=0;" edge="1" parent="1">
          <mxGeometry width="50" height="50" relative="1" as="geometry">
            <mxPoint x="200" y="810" as="sourcePoint" />
            <mxPoint x="680" y="810" as="targetPoint" />
          </mxGeometry>
        </mxCell>
        <mxCell id="7IAWQ3vHg3S8ieReHD5M-104" value="Matched" style="edgeLabel;html=1;align=center;verticalAlign=middle;resizable=0;points=[];" vertex="1" connectable="0" parent="7IAWQ3vHg3S8ieReHD5M-102">
          <mxGeometry x="-0.0042" y="-1" relative="1" as="geometry">
            <mxPoint as="offset" />
          </mxGeometry>
        </mxCell>
      </root>
    </mxGraphModel>
  </diagram>
</mxfile>
